<svg id="visual" viewBox="0 0 1440 540" width="1440" height="540" xmlns="http://www.w3.org/2000/svg" xmlns:xlink="http://www.w3.org/1999/xlink" version="1.1"><rect width="1440" height="540" fill="#fffaff"></rect><g><g transform="translate(1075 336)"><path d="M106.3 -37.6C119.9 7.5 100.9 60.1 62.5 88.6C24.1 117 -33.6 121.4 -72.7 94.4C-111.8 67.3 -132.2 8.9 -117 -38.4C-101.8 -85.6 -50.9 -121.6 -2.3 -120.8C46.3 -120.1 92.7 -82.6 106.3 -37.6Z" stroke="#30bced" fill="none" stroke-width="20"></path></g><g transform="translate(57 506)"><path d="M88.8 -29.5C100.5 7.3 85.4 52.1 53.3 76C21.2 99.9 -27.9 103 -59.5 80.4C-91.1 57.8 -105.1 9.6 -92.2 -28.7C-79.4 -67 -39.7 -95.2 -0.6 -95C38.5 -94.9 77 -66.2 88.8 -29.5Z" stroke="#30bced" fill="none" stroke-width="20"></path></g><g transform="translate(681 406)"><path d="M60.8 -21.3C69.7 7.7 61.5 40.6 39 58C16.4 75.5 -20.6 77.4 -41.6 61.2C-62.6 45 -67.6 10.7 -58 -19.2C-48.4 -49.1 -24.2 -74.6 0.9 -74.9C25.9 -75.1 51.9 -50.2 60.8 -21.3Z" stroke="#30bced" fill="none" stroke-width="20"></path></g></g></svg>