<svg id="visual" viewBox="0 0 960 540" width="960" height="540" xmlns="http://www.w3.org/2000/svg" xmlns:xlink="http://www.w3.org/1999/xlink" version="1.1"><rect width="960" height="540" fill="#fffaff"></rect><g><g transform="translate(669 68)"><path d="M88.3 -25.7C101.1 10.9 89.1 58.6 57.2 82.7C25.3 106.9 -26.7 107.5 -61.3 82.7C-96 57.9 -113.5 7.7 -100.4 -29.3C-87.3 -66.2 -43.6 -89.9 -3 -89C37.7 -88 75.4 -62.4 88.3 -25.7Z" stroke="#30bced" fill="none" stroke-width="20"></path></g><g transform="translate(155 384)"><path d="M72 -23.9C81.2 4.8 68.1 40.3 42.6 58.9C17.2 77.4 -20.7 79 -44.6 61.6C-68.6 44.2 -78.5 7.7 -68.7 -21.9C-59 -51.4 -29.5 -74.1 1 -74.5C31.4 -74.8 62.9 -52.7 72 -23.9Z" stroke="#30bced" fill="none" stroke-width="20"></path></g><g transform="translate(380 1)"><path d="M42.9 -14.5C49.3 5.8 43.9 29.4 28.5 41C13.1 52.6 -12.3 52.2 -29.9 39.8C-47.5 27.3 -57.4 2.7 -51.1 -17.4C-44.8 -37.6 -22.4 -53.3 -2.1 -52.6C18.2 -51.9 36.5 -34.9 42.9 -14.5Z" stroke="#30bced" fill="none" stroke-width="20"></path></g></g></svg>