<svg id="visual" viewBox="0 0 450 450" width="450" height="450" xmlns="http://www.w3.org/2000/svg" xmlns:xlink="http://www.w3.org/1999/xlink" version="1.1"><rect width="450" height="450" fill="#fffaff"></rect><g><g transform="translate(232 155)"><path d="M57.4 -19C65.1 5 55.6 34.2 35.1 49.3C14.6 64.4 -16.9 65.4 -38.1 50.5C-59.4 35.5 -70.5 4.5 -62.4 -20C-54.4 -44.5 -27.2 -62.4 -1.2 -62.1C24.9 -61.7 49.8 -43 57.4 -19Z" fill="none" stroke="#30bced" stroke-width="20"></path></g><g transform="translate(15 266)"><path d="M53 -19.5C59.2 2 48.3 26.8 29.4 40.6C10.4 54.4 -16.6 57.2 -34 45C-51.3 32.8 -59 5.5 -51.8 -17.3C-44.5 -40.2 -22.3 -58.7 0.6 -58.9C23.4 -59.1 46.8 -40.9 53 -19.5Z" fill="none" stroke="#30bced" stroke-width="20"></path></g><g transform="translate(299 393)"><path d="M34.4 -12.1C39.2 3.6 34 21.7 21.8 30.7C9.6 39.7 -9.6 39.7 -23.5 30.2C-37.4 20.6 -45.9 1.5 -41.1 -14.2C-36.2 -30 -18.1 -42.3 -1.7 -41.7C14.8 -41.2 29.6 -27.8 34.4 -12.1Z" fill="none" stroke="#30bced" stroke-width="20"></path></g></g></svg>